<svg xmlns="http://www.w3.org/2000/svg">
<symbol id="mail" viewBox="0 0 20 16">
<path d="M20 2C20 0.9 19.1 0 18 0H2C0.9 0 0 0.9 0 2V14C0 15.1 0.9 16 2 16H18C19.1 16 20 15.1 20 14V2ZM18 2L10 7L2 2H18ZM18 14H2V4L10 9L18 4V14Z" fill="white"/>
</symbol>
<symbol id="phone" viewBox="0 0 18 18">
<path d="M9 0C4.0567 0 0 4.0567 0 9C0 10.6315 0.439865 12.2197 1.274 13.6092L0 18L4.39082 16.726C5.78032 17.5601 7.36853 18 9 18C13.9433 18 18 13.9433 18 9C18 4.0567 13.9433 0 9 0ZM14.6269 12.8028L14.2082 13.2215C13.6158 13.8139 12.2533 13.767 11.3779 13.5979C8.46689 13.0357 5.07307 9.74611 4.41856 6.89735C4.09447 5.48616 4.27341 4.25926 4.74142 3.79111L5.16014 3.37239C5.39127 3.1414 5.76672 3.14168 5.99757 3.37239L7.67271 5.04767C7.7845 5.15945 7.84575 5.30763 7.84575 5.46625C7.84575 5.62486 7.7845 5.77318 7.67271 5.88455L7.25414 6.30368C6.79271 6.7662 6.79271 7.51753 7.25414 7.97896L10.0204 10.7088C10.4832 11.1716 11.2321 11.1721 11.6956 10.7088L12.1143 10.2902C12.3305 10.0728 12.7343 10.0721 12.9522 10.2902L14.6269 11.9649C14.8543 12.1914 14.863 12.5666 14.6269 12.8028Z" fill="white"/>
</symbol>
<symbol id="facebook" viewBox="0 0 18 18">
<path d="M15.3633 0H2.63672C1.18295 0 0 1.18295 0 2.63672V15.3633C0 16.817 1.18295 18 2.63672 18H7.94531V11.6367H5.83594V8.47266H7.94531V6.32812C7.94531 4.58336 9.36461 3.16406 11.1094 3.16406H14.3086V6.32812H11.1094V8.47266H14.3086L13.7812 11.6367H11.1094V18H15.3633C16.817 18 18 16.817 18 15.3633V2.63672C18 1.18295 16.817 0 15.3633 0Z" fill="white"/>
</symbol>
<symbol id="instagram" viewBox="0 0 18 18">
<path d="M15.3633 0H2.63672C1.18295 0 0 1.18295 0 2.63672V15.3633C0 16.817 1.18295 18 2.63672 18H15.3633C16.817 18 18 16.817 18 15.3633V2.63672C18 1.18295 16.817 0 15.3633 0ZM6.36328 14.2734H4.25391V6.89062H6.36328V14.2734ZM6.36328 5.83594H4.25391V3.72656H6.36328V5.83594ZM13.7461 14.2734H11.6367V10.0547C11.6367 9.47324 11.1635 9 10.582 9C10.0006 9 9.52734 9.47324 9.52734 10.0547V14.2734H7.41797V6.89062H9.52734V7.28819C10.08 7.11639 10.4389 6.89062 11.1094 6.89062C12.5399 6.89214 13.7461 8.17548 13.7461 9.69214V14.2734Z" fill="white"/>
</symbol>
<symbol id="twitter" viewBox="0 0 18 16">
<path d="M6.71526 15.3844C5.93687 15.3844 5.1357 15.3214 4.32971 15.195C2.91014 14.9723 1.47313 14.2298 1.0665 14.0074L0 13.4243L1.15466 13.0446C2.41686 12.6296 3.18466 12.3721 4.13512 11.9689C3.18343 11.508 2.44995 10.679 2.09688 9.60726L1.82826 8.7918L2.04854 8.82545C1.83966 8.61492 1.67473 8.40124 1.54688 8.20692C1.09218 7.51629 0.851441 6.6724 0.902664 5.94923L0.953201 5.23745L1.37933 5.40252C1.19957 5.06304 1.06966 4.7005 0.993302 4.32051C0.807221 3.39381 0.962952 2.4093 1.43193 1.54838L1.80313 0.866954L2.29958 1.46324C3.86966 3.34931 5.85832 4.46813 8.2186 4.79566C8.12219 4.13113 8.19443 3.4898 8.43352 2.91494C8.71188 2.2456 9.20709 1.67802 9.86517 1.27345C10.596 0.824244 11.4824 0.606578 12.3609 0.660548C13.2929 0.717814 14.1391 1.06704 14.8112 1.67115C15.1394 1.58587 15.3813 1.49482 15.7081 1.37178C15.9048 1.29775 16.1278 1.21371 16.4068 1.11758L17.4352 0.76327L16.7646 2.67846C16.8088 2.67475 16.8544 2.6716 16.9021 2.66954L18.0001 2.61982L17.3511 3.50683C17.3139 3.55764 17.3044 3.57206 17.2912 3.59197C17.2389 3.6708 17.1738 3.76885 16.283 4.9584C16.06 5.25627 15.9486 5.64422 15.9693 6.05099C16.0483 7.59677 15.8586 8.99533 15.4053 10.2077C14.9766 11.3546 14.3122 12.3387 13.4308 13.1326C12.3401 14.1148 10.9494 14.7873 9.29704 15.1312C8.48653 15.2998 7.61614 15.3844 6.71526 15.3844Z" fill="white"/>
</symbol>
<symbol id="symbol" viewBox="0 0 10 6">
<path d="M8.4425 0.442505L5 3.8775L1.5575 0.442505L0.5 1.5L5 6L9.5 1.5L8.4425 0.442505Z" fill="white"/>
</symbol>
<symbol id="person"  viewBox="0 0 16 16">
<path d="M8 1.9C9.16 1.9 10.1 2.84 10.1 4C10.1 5.16 9.16 6.1 8 6.1C6.84 6.1 5.9 5.16 5.9 4C5.9 2.84 6.84 1.9 8 1.9ZM8 10.9C10.97 10.9 14.1 12.36 14.1 13V14.1H1.9V13C1.9 12.36 5.03 10.9 8 10.9ZM8 0C5.79 0 4 1.79 4 4C4 6.21 5.79 8 8 8C10.21 8 12 6.21 12 4C12 1.79 10.21 0 8 0ZM8 9C5.33 9 0 10.34 0 13V16H16V13C16 10.34 10.67 9 8 9Z" fill="white"/>
</symbol>
<symbol id="heart" viewBox="0 0 20 19">
<path d="M14.5 0C12.76 0 11.09 0.81 10 2.09C8.91 0.81 7.24 0 5.5 0C2.42 0 0 2.42 0 5.5C0 9.28 3.4 12.36 8.55 17.04L10 18.35L11.45 17.03C16.6 12.36 20 9.28 20 5.5C20 2.42 17.58 0 14.5 0ZM10.1 15.55L10 15.65L9.9 15.55C5.14 11.24 2 8.39 2 5.5C2 3.5 3.5 2 5.5 2C7.04 2 8.54 2.99 9.07 4.36H10.94C11.46 2.99 12.96 2 14.5 2C16.5 2 18 3.5 18 5.5C18 8.39 14.86 11.24 10.1 15.55Z" fill="#2A2A2A"/>
</symbol>
<symbol id="pocket" viewBox="0 0 18 21">
<path d="M16 5H14C14 2.24 11.76 0 9 0C6.24 0 4 2.24 4 5H2C0.9 5 0 5.9 0 7V19C0 20.1 0.9 21 2 21H16C17.1 21 18 20.1 18 19V7C18 5.9 17.1 5 16 5ZM9 2C10.66 2 12 3.34 12 5H6C6 3.34 7.34 2 9 2ZM16 19H2V7H16V19ZM9 11C7.34 11 6 9.66 6 8H4C4 10.76 6.24 13 9 13C11.76 13 14 10.76 14 8H12C12 9.66 10.66 11 9 11Z" fill="#2A2A2A"/>
</symbol>
<symbol id="ph" viewBox="0 0 18 18">
<path d="M12 9H14C14 6.24 11.76 4 9 4V6C10.66 6 12 7.34 12 9ZM16 9H18C18 4.03 13.97 0 9 0V2C12.87 2 16 5.13 16 9ZM17 12.5C15.75 12.5 14.55 12.3 13.43 11.93C13.33 11.9 13.22 11.88 13.12 11.88C12.86 11.88 12.61 11.98 12.41 12.17L10.21 14.37C7.38 12.93 5.06 10.62 3.62 7.78L5.82 5.57C6.1 5.31 6.18 4.92 6.07 4.57C5.7 3.45 5.5 2.25 5.5 1C5.5 0.45 5.05 0 4.5 0H1C0.45 0 0 0.45 0 1C0 10.39 7.61 18 17 18C17.55 18 18 17.55 18 17V13.5C18 12.95 17.55 12.5 17 12.5ZM2.03 2H3.53C3.6 2.88 3.75 3.75 3.98 4.58L2.78 5.79C2.38 4.58 2.12 3.32 2.03 2ZM16 15.97C14.68 15.88 13.4 15.62 12.2 15.21L13.4 14.01C14.25 14.25 15.12 14.4 16 14.46V15.97Z" fill="#2A2A2A"/>
</symbol>
<symbol id="symb" viewBox="0 0 18 12">
<path d="M0 12H18V10H0V12ZM0 7H18V5H0V7ZM0 0V2H18V0H0Z" fill="white"/>
</symbol>
<symbol id="sym" viewBox="0 0 10 6">
<path d="M8.4425 0.442505L5 3.8775L1.5575 0.442505L0.5 1.5L5 6L9.5 1.5L8.4425 0.442505Z"/>
</symbol>
<symbol id="symbol1"  viewBox="0 0 9 12">
<path d="M2.01999 0L0.609985 1.41L5.18999 6L0.609985 10.59L2.01999 12L8.01999 6L2.01999 0Z" fill="#2A2A2A"/>
</symbol>
<symbol id="calendar" width="20" height="22" viewBox="0 0 20 22">
<path d="M18 2H17V0H15V2H5V0H3V2H2C0.9 2 0 2.9 0 4V20C0 21.1 0.9 22 2 22H18C19.1 22 20 21.1 20 20V4C20 2.9 19.1 2 18 2ZM18 20H2V9H18V20ZM18 7H2V4H18V7Z" fill="#757575"/>
</symbol>
<symbol id="sms" width="20" height="20" viewBox="0 0 20 20">
<path d="M18 0H2C0.9 0 0 0.9 0 2V20L4 16H18C19.1 16 20 15.1 20 14V2C20 0.9 19.1 0 18 0ZM18 14H4L2 16V2H18V14ZM5 7H7V9H5V7ZM9 7H11V9H9V7ZM13 7H15V9H13V7Z" fill="#757575"/>
</symbol>
</svg>